<?xml version="1.0" encoding="utf-8"?>
<!-- Generator: Adobe Illustrator 23.0.0, SVG Export Plug-In . SVG Version: 6.00 Build 0)  -->
<svg version="1.1" id="Capa_1" xmlns="http://www.w3.org/2000/svg" xmlns:xlink="http://www.w3.org/1999/xlink" x="0px" y="0px"
	 viewBox="0 0 368 368" style="enable-background:new 0 0 368 368;" xml:space="preserve">
<style type="text/css">
	.st0{fill:#444444;}
</style>
<g>
	<g>
		<path class="st0" d="M301.5,112.3C290.4,57,241.1,16,184,16c-57.1,0-106.4,41-117.5,96.3C29.4,115.1,0,146.2,0,184
			c0,39.7,32.3,72,72,72h16c4.4,0,8-3.6,8-8s-3.6-8-8-8H72c-30.9,0-56-25.1-56-56s25.1-56,55.6-56.1c0.1,0,0.2,0,0.3,0
			c0,0,0.1,0,0.1,0c0.1,0,0.1,0,0.2,0c0.3,0,0.6,0.1,1,0.1c4.2,0,8.5,0.5,12.8,1.6c0.3,0.1,0.6,0.2,1,0.3
			c14.1,3.8,26.4,13.3,33.7,26c2.2,3.8,7.1,5.1,10.9,2.9c3.8-2.2,5.1-7.1,2.9-10.9c-9.2-15.9-24.5-27.9-42.2-33.1
			c-0.4-0.2-0.8-0.3-1.2-0.4c-2.8-0.8-5.6-1.3-8.4-1.7C93.3,66.2,135.4,32,184,32c48.5,0,90.7,34.2,101.4,80.8
			c-2.8,0.4-5.6,1-8.4,1.7c-0.4,0.1-0.8,0.2-1.1,0.4c-17.6,5.1-33,17.1-42.2,33.1c-2.2,3.8-0.9,8.7,2.9,10.9
			c3.8,2.2,8.7,0.9,10.9-2.9c7.3-12.7,19.6-22.1,33.7-26c0.3-0.1,0.7-0.2,1-0.3c4.3-1.1,8.6-1.6,12.8-1.6c0.5,0,0.6,0,1.1-0.1
			c30.9,0,56,25.1,56,56s-25.1,56-56,56h-16c-4.4,0-8,3.6-8,8s3.6,8,8,8h16c39.7,0,72-32.3,72-72C368,146.2,338.6,115.1,301.5,112.3
			z"/>
	</g>
</g>
<g>
	<g>
		<path class="st0" d="M202.8,208.5c-4.1-1.5-8.7,0.5-10.3,4.7l-48,128c-1.6,4.1,0.5,8.8,4.7,10.3c0.9,0.3,1.9,0.5,2.8,0.5
			c3.2,0,6.3-2,7.5-5.2l48-128C209,214.7,207,210.1,202.8,208.5z"/>
	</g>
</g>
<g>
	<g>
		<path class="st0" d="M250.5,208.4c-4.2-1.4-8.7,0.9-10.1,5.1l-32,96c-1.4,4.2,0.9,8.7,5.1,10.1c0.8,0.3,1.7,0.4,2.5,0.4
			c3.4,0,6.5-2.1,7.6-5.5l32-96C257,214.3,254.7,209.8,250.5,208.4z"/>
	</g>
</g>
<g>
	<g>
		<path class="st0" d="M155.1,208.6c-4.1-1.7-8.8,0.2-10.5,4.3l-40,96c-1.7,4.1,0.2,8.8,4.3,10.5c1,0.4,2.1,0.6,3.1,0.6
			c3.1,0,6.1-1.9,7.4-4.9l40-96C161.1,215,159.2,210.3,155.1,208.6z"/>
	</g>
</g>
</svg>
