<?xml version="1.0" encoding="utf-8"?>
<!-- Generator: Adobe Illustrator 23.0.0, SVG Export Plug-In . SVG Version: 6.00 Build 0)  -->
<svg version="1.1" id="Capa_1" xmlns="http://www.w3.org/2000/svg" xmlns:xlink="http://www.w3.org/1999/xlink" x="0px" y="0px"
	 viewBox="0 0 368 368" style="enable-background:new 0 0 368 368;" xml:space="preserve">
<style type="text/css">
	.st0{fill:#444444;}
</style>
<g>
	<g>
		<path class="st0" d="M331.3,192H360c4.4,0,8-3.6,8-8s-3.6-8-8-8h-28.7l34.3-34.3c3.1-3.1,3.1-8.2,0-11.3s-8.2-3.1-11.3,0
			L308.7,176H203.3l72-72H344c4.4,0,8-3.6,8-8s-3.6-8-8-8h-52.7l26.3-26.3c3.1-3.1,3.1-8.2,0-11.3s-8.2-3.1-11.3,0L280,76.7V24
			c0-4.4-3.6-8-8-8s-8,3.6-8,8v68.7l-72,72V59.3l45.7-45.7c3.1-3.1,3.1-8.2,0-11.3s-8.2-3.1-11.3,0L192,36.7V8c0-4.4-3.6-8-8-8
			s-8,3.6-8,8v28.7L141.7,2.3c-3.1-3.1-8.2-3.1-11.3,0s-3.1,8.2,0,11.3L176,59.3v105.4l-72-72V24c0-4.4-3.6-8-8-8s-8,3.6-8,8v52.7
			L61.7,50.3c-3.1-3.1-8.2-3.1-11.3,0s-3.1,8.2,0,11.3L76.7,88H24c-4.4,0-8,3.6-8,8s3.6,8,8,8h68.7l72,72H59.3l-45.7-45.7
			c-3.1-3.1-8.2-3.1-11.3,0c-3.1,3.1-3.1,8.2,0,11.3L36.7,176H8c-4.4,0-8,3.6-8,8s3.6,8,8,8h28.7L2.3,226.3c-3.1,3.1-3.1,8.2,0,11.3
			C3.9,239.2,6,240,8,240s4.1-0.8,5.7-2.3L59.3,192h105.4l-72,72H24c-4.4,0-8,3.6-8,8s3.6,8,8,8h52.7l-26.3,26.3
			c-3.1,3.1-3.1,8.2,0,11.3c1.6,1.6,3.6,2.3,5.7,2.3c2,0,4.1-0.8,5.7-2.3L88,291.3V344c0,4.4,3.6,8,8,8s8-3.6,8-8v-68.7l72-72v105.4
			l-45.7,45.7c-3.1,3.1-3.1,8.2,0,11.3c3.1,3.1,8.2,3.1,11.3,0l34.3-34.3V360c0,4.4,3.6,8,8,8s8-3.6,8-8v-28.7l34.3,34.3
			c1.6,1.6,3.6,2.3,5.7,2.3s4.1-0.8,5.7-2.3c3.1-3.1,3.1-8.2,0-11.3L192,308.7V203.3l72,72V344c0,4.4,3.6,8,8,8s8-3.6,8-8v-52.7
			l26.3,26.3c1.6,1.6,3.6,2.3,5.7,2.3s4.1-0.8,5.7-2.3c3.1-3.1,3.1-8.2,0-11.3L291.3,280H344c4.4,0,8-3.6,8-8s-3.6-8-8-8h-68.7
			l-72-72h105.4l45.7,45.7c1.6,1.6,3.6,2.3,5.6,2.3s4.1-0.8,5.7-2.3c3.1-3.1,3.1-8.2,0-11.3L331.3,192z"/>
	</g>
</g>
</svg>
