<?xml version="1.0" encoding="utf-8"?>
<!-- Generator: Adobe Illustrator 23.0.0, SVG Export Plug-In . SVG Version: 6.00 Build 0)  -->
<svg version="1.1" id="Capa_1" xmlns="http://www.w3.org/2000/svg" xmlns:xlink="http://www.w3.org/1999/xlink" x="0px" y="0px"
	 viewBox="0 0 368 368" style="enable-background:new 0 0 368 368;" xml:space="preserve">
<style type="text/css">
	.st0{fill:#444444;}
</style>
<g>
	<g>
		<path class="st0" d="M184,0c-4.4,0-8,3.6-8,8v48c0,4.4,3.6,8,8,8c4.4,0,8-3.6,8-8V8C192,3.6,188.4,0,184,0z"/>
	</g>
</g>
<g>
	<g>
		<path class="st0" d="M184,304c-4.4,0-8,3.6-8,8v48c0,4.4,3.6,8,8,8s8-3.6,8-8v-48C192,307.6,188.4,304,184,304z"/>
	</g>
</g>
<g>
	<g>
		<path class="st0" d="M360,176h-48c-4.4,0-8,3.6-8,8s3.6,8,8,8h48c4.4,0,8-3.6,8-8S364.4,176,360,176z"/>
	</g>
</g>
<g>
	<g>
		<path class="st0" d="M56,176H8c-4.4,0-8,3.6-8,8s3.6,8,8,8h48c4.4,0,8-3.6,8-8S60.4,176,56,176z"/>
	</g>
</g>
<g>
	<g>
		<path class="st0" d="M317.7,306.3l-40-40c-3.1-3.1-8.2-3.1-11.3,0s-3.1,8.2,0,11.3l40,40c1.6,1.6,3.6,2.3,5.7,2.3s4.1-0.8,5.7-2.3
			C320.8,314.5,320.8,309.5,317.7,306.3z"/>
	</g>
</g>
<g>
	<g>
		<path class="st0" d="M101.7,90.3l-40-40c-3.1-3.1-8.2-3.1-11.3,0s-3.1,8.2,0,11.3l40,40c1.6,1.6,3.6,2.3,5.7,2.3s4.1-0.8,5.7-2.3
			C104.8,98.5,104.8,93.5,101.7,90.3z"/>
	</g>
</g>
<g>
	<g>
		<path class="st0" d="M101.7,266.3c-3.1-3.1-8.2-3.1-11.3,0l-40,40c-3.1,3.1-3.1,8.2,0,11.3c1.6,1.6,3.6,2.3,5.7,2.3
			s4.1-0.8,5.7-2.3l40-40C104.8,274.5,104.8,269.5,101.7,266.3z"/>
	</g>
</g>
<g>
	<g>
		<path class="st0" d="M317.7,50.3c-3.1-3.1-8.2-3.1-11.3,0l-40,40c-3.1,3.1-3.1,8.2,0,11.3c1.6,1.6,3.6,2.3,5.7,2.3
			s4.1-0.8,5.7-2.3l40-40C320.8,58.5,320.8,53.5,317.7,50.3z"/>
	</g>
</g>
<g>
	<g>
		<path class="st0" d="M184,96c-48.5,0-88,39.5-88,88s39.5,88,88,88s88-39.5,88-88S232.5,96,184,96z M184,256c-39.7,0-72-32.3-72-72
			s32.3-72,72-72s72,32.3,72,72S223.7,256,184,256z"/>
	</g>
</g>
</svg>
